<svg xmlns="http://www.w3.org/2000/svg" xmlns:xlink="http://www.w3.org/1999/xlink" width="500" zoomAndPan="magnify" viewBox="0 0 375 374.999991" height="500" preserveAspectRatio="xMidYMid meet" version="1.0"><defs><clipPath id="a9abcab9d6"><path d="M 37.742188 126.519531 L 337.257812 126.519531 L 337.257812 348.875 L 37.742188 348.875 Z M 37.742188 126.519531 " clip-rule="nonzero"/></clipPath></defs><g clip-path="url(#a9abcab9d6)"><path fill="#1f2937" d="M 56.636719 215.765625 C 51.5 233.523438 47.082031 240.820312 47 262.664062 C 46.953125 281.75 47.042969 300.84375 47.011719 319.957031 C 46.976562 345.492188 48.789062 348.792969 74.933594 348.875 C 101.996094 348.972656 98.734375 338.84375 98.824219 314.960938 L 275.921875 314.796875 C 276.121094 337.8125 272.972656 348.972656 298.6875 348.875 C 335.414062 348.792969 327.722656 342.023438 327.757812 263.957031 C 327.769531 242.898438 323.988281 233.125 318.046875 215.753906 C 335.417969 215.15625 356.414062 175.15625 304.015625 183.335938 C 301.242188 174.691406 297.476562 166.550781 293.839844 158.0625 C 289.289062 147.335938 288.957031 143.78125 281.605469 136.3125 C 275.375 129.964844 266.480469 127.320312 256.464844 126.78125 L 251.941406 126.515625 L 116.992188 126.945312 C 91.988281 127.164062 86.71875 144.445312 80.199219 159.777344 C 77.644531 165.734375 73.234375 179.042969 69.644531 183.082031 C 19.210938 175.480469 39.539062 215.109375 56.636719 215.765625 Z M 116.746094 280.136719 L 116.746094 253.714844 L 258.265625 253.714844 L 258.265625 280.136719 Z M 97.320312 271.136719 C 97.320312 279.847656 90.179688 286.929688 81.34375 286.9375 C 72.523438 286.9375 65.375 279.855469 65.375 271.136719 C 65.375 262.417969 72.523438 255.292969 81.34375 255.292969 C 90.179688 255.292969 97.320312 262.417969 97.320312 271.136719 Z M 309.648438 271.136719 C 309.648438 279.847656 302.472656 286.929688 293.671875 286.9375 C 284.8125 286.9375 277.671875 279.855469 277.671875 271.136719 C 277.671875 262.417969 284.8125 255.292969 293.671875 255.292969 C 302.472656 255.292969 309.648438 262.417969 309.648438 271.136719 Z M 118.71875 139.96875 C 128.511719 137.453125 176.6875 139.132812 190.777344 139.128906 C 262.414062 139.128906 261.878906 131.828125 275.449219 164.566406 C 278.996094 173.167969 282.730469 181.953125 286.1875 190.425781 C 289.007812 197.460938 298.144531 212.09375 291.027344 217.332031 C 285.746094 221.207031 124.230469 219.105469 109.152344 219.105469 C 74.640625 219.105469 76.050781 220.519531 90.535156 185.585938 C 98.894531 165.328125 103.839844 143.796875 118.71875 139.96875 " fill-opacity="1" fill-rule="evenodd"/></g><path stroke-linecap="round" transform="matrix(0.713603, -0.230806, 0.230806, 0.713603, -3.000246, 90.436576)" fill="none" stroke-linejoin="miter" d="M 19.997973 20.001071 L 258.734771 20.001366 " stroke="#1f2937" stroke-width="40" stroke-opacity="1" stroke-miterlimit="4"/><path stroke-linecap="round" transform="matrix(0.713603, 0.230806, -0.230806, 0.713603, 178.824778, 26.436669)" fill="none" stroke-linejoin="miter" d="M 19.999429 19.999324 L 259.113424 19.997458 " stroke="#1f2937" stroke-width="40" stroke-opacity="1" stroke-miterlimit="4"/></svg>