<svg xmlns="http://www.w3.org/2000/svg" xmlns:xlink="http://www.w3.org/1999/xlink" width="500" zoomAndPan="magnify" viewBox="0 0 375 374.999991" height="500" preserveAspectRatio="xMidYMid meet" version="1.0"><defs><g/><clipPath id="9e136f2514"><path d="M 80.675781 37.5 L 294.320312 37.5 L 294.320312 337.5 L 80.675781 337.5 Z M 80.675781 37.5 " clip-rule="nonzero"/></clipPath></defs><g clip-path="url(#9e136f2514)"><path fill="#bae6fd" d="M 187.496094 337.511719 C 187.496094 337.511719 80.675781 203.320312 80.675781 144.324219 C 80.675781 85.328125 128.5 37.5 187.496094 37.5 C 246.492188 37.5 294.320312 85.328125 294.320312 144.324219 C 294.320312 203.320312 187.496094 337.511719 187.496094 337.511719 " fill-opacity="1" fill-rule="nonzero"/></g><path fill="#ffffff" d="M 187.496094 61.960938 C 142.007812 61.960938 105.132812 98.835938 105.132812 144.324219 C 105.132812 189.8125 142.007812 226.6875 187.496094 226.6875 C 232.984375 226.6875 269.863281 189.8125 269.863281 144.324219 C 269.863281 98.835938 232.984375 61.960938 187.496094 61.960938 " fill-opacity="1" fill-rule="nonzero"/><path fill="#bae6fd" d="M 217.039062 133.113281 C 215.667969 135.953125 213.734375 138.148438 211.246094 139.6875 C 208.753906 141.234375 205.863281 142.003906 202.578125 142.003906 L 175.222656 142.003906 L 175.222656 104.488281 L 202.578125 104.488281 C 205.863281 104.488281 208.753906 105.273438 211.246094 106.84375 C 213.734375 108.414062 215.667969 110.617188 217.039062 113.457031 C 218.40625 116.296875 219.09375 119.585938 219.09375 123.320312 C 219.09375 127.011719 218.40625 130.273438 217.039062 133.113281 Z M 230.640625 105.835938 C 227.921875 100.800781 224.101562 96.902344 219.167969 94.136719 C 214.234375 91.371094 208.53125 89.988281 202.054688 89.988281 L 159.976562 89.988281 L 159.976562 198.65625 L 175.222656 198.65625 L 175.222656 156.503906 L 202.054688 156.503906 C 208.53125 156.503906 214.234375 155.136719 219.167969 152.394531 C 224.101562 149.65625 227.921875 145.78125 230.640625 140.773438 C 233.355469 135.765625 234.714844 129.949219 234.714844 123.320312 C 234.714844 116.695312 233.355469 110.867188 230.640625 105.835938 " fill-opacity="1" fill-rule="nonzero"/><g fill="#ffffff" fill-opacity="1"><g transform="translate(135.237556, 251.693187)"><g><path d="M 5.578125 -11.1875 C 6.335938 -11.1875 7.007812 -11.019531 7.59375 -10.6875 C 8.1875 -10.351562 8.660156 -9.894531 9.015625 -9.3125 C 9.367188 -8.726562 9.546875 -8.070312 9.546875 -7.34375 C 9.546875 -6.601562 9.367188 -5.941406 9.015625 -5.359375 C 8.671875 -4.773438 8.203125 -4.316406 7.609375 -3.984375 C 7.015625 -3.660156 6.335938 -3.5 5.578125 -3.5 L 3.703125 -3.5 L 3.703125 0 L 1.28125 0 L 1.28125 -11.1875 Z M 5.484375 -5.734375 C 5.960938 -5.734375 6.347656 -5.882812 6.640625 -6.1875 C 6.929688 -6.5 7.078125 -6.882812 7.078125 -7.34375 C 7.078125 -7.8125 6.929688 -8.195312 6.640625 -8.5 C 6.347656 -8.800781 5.960938 -8.953125 5.484375 -8.953125 L 3.703125 -8.953125 L 3.703125 -5.734375 Z M 5.484375 -5.734375 "/></g></g></g><g fill="#ffffff" fill-opacity="1"><g transform="translate(157.976866, 251.693187)"><g><path d="M 8.71875 0 L 7.921875 -2.125 L 3.46875 -2.125 L 2.703125 0 L 0.140625 0 L 4.53125 -11.1875 L 6.8125 -11.1875 L 11.328125 0 Z M 5.6875 -8.234375 L 4.234375 -4.234375 L 7.15625 -4.234375 Z M 5.6875 -8.234375 "/></g></g></g><g fill="#ffffff" fill-opacity="1"><g transform="translate(182.25067, 251.693187)"><g><path d="M 7.4375 0 L 5.265625 -3.8125 L 3.703125 -3.8125 L 3.703125 0 L 1.28125 0 L 1.28125 -11.1875 L 5.796875 -11.1875 C 6.546875 -11.1875 7.210938 -11.023438 7.796875 -10.703125 C 8.378906 -10.390625 8.84375 -9.953125 9.1875 -9.390625 C 9.53125 -8.835938 9.703125 -8.203125 9.703125 -7.484375 C 9.703125 -6.753906 9.515625 -6.101562 9.140625 -5.53125 C 8.773438 -4.96875 8.285156 -4.535156 7.671875 -4.234375 L 10.15625 0 Z M 3.703125 -8.953125 L 3.703125 -6.0625 L 5.640625 -6.0625 C 6.140625 -6.0625 6.53125 -6.195312 6.8125 -6.46875 C 7.101562 -6.738281 7.25 -7.082031 7.25 -7.5 C 7.25 -7.925781 7.101562 -8.273438 6.8125 -8.546875 C 6.53125 -8.816406 6.140625 -8.953125 5.640625 -8.953125 Z M 3.703125 -8.953125 "/></g></g></g><g fill="#ffffff" fill-opacity="1"><g transform="translate(205.613364, 251.693187)"><g><path d="M 10.609375 0 L 7.65625 0 L 3.703125 -5.46875 L 3.703125 0 L 1.28125 0 L 1.28125 -11.1875 L 3.703125 -11.1875 L 3.703125 -6.03125 L 7.375 -11.1875 L 10.203125 -11.1875 L 6.375 -5.828125 Z M 10.609375 0 "/></g></g></g><g fill="#ffffff" fill-opacity="1"><g transform="translate(228.896144, 251.693187)"><g><path d="M 10.59375 -11.1875 L 6.671875 -4.53125 L 6.671875 0 L 4.171875 0 L 4.171875 -4.546875 L 0.265625 -11.1875 L 2.84375 -11.1875 L 5.4375 -6.71875 L 8.03125 -11.1875 Z M 10.59375 -11.1875 "/></g></g></g></svg>